<svg xmlns="http://www.w3.org/2000/svg" viewBox="0 0 244.74 20.56"><defs><style>.cls-1{stroke:#000;stroke-miterlimit:10;stroke-width:0.5px;}.cls-2{fill:#616161;}</style></defs><g id="Layer_2" data-name="Layer 2"><g id="Layer_1-2" data-name="Layer 1"><path class="cls-1" d="M52.46,1.19l-6,17.08H44.81l-4.88-14L35,18.27H33.38l-6-17.08h2l4.85,14.28,5-14.28,1.52,0,4.89,14.3,4.9-14.32Z"/><path class="cls-1" d="M67.46,13.88H58.53l-1.89,4.39h-2L62.11,1.19h1.73l7.51,17.08h-2Zm-.69-1.63L63,3.47l-3.77,8.78Z"/><path class="cls-1" d="M78.43,2.87h-6V1.19H86.37V2.87h-6v15.4h-2Z"/><path class="cls-1" d="M93.2,17.41a7,7,0,0,1-2.75-3,10.56,10.56,0,0,1-1-4.66,10.46,10.46,0,0,1,1-4.65,7,7,0,0,1,2.75-3A8.17,8.17,0,0,1,97.41,1a9.45,9.45,0,0,1,3.26.54,7,7,0,0,1,2.55,1.62l-.74,1.52a8.42,8.42,0,0,0-2.41-1.52,7.41,7.41,0,0,0-2.63-.45,5.43,5.43,0,0,0-4.36,1.82,7.82,7.82,0,0,0-1.55,5.19,8,8,0,0,0,1.54,5.22,5.38,5.38,0,0,0,4.37,1.83,7.41,7.41,0,0,0,2.63-.45,8.42,8.42,0,0,0,2.41-1.52l.74,1.52a7,7,0,0,1-2.55,1.62,9.45,9.45,0,0,1-3.26.54A8.17,8.17,0,0,1,93.2,17.41Z"/><path class="cls-1" d="M123.09,1.19V18.27h-2V10.43H110.88v7.84h-1.95V1.19h1.95V8.77h10.25V1.19Z"/><path class="cls-1" d="M133.54,16.31l.74-1.52a8.1,8.1,0,0,0,2.59,1.54,9.53,9.53,0,0,0,3.07.46,5.33,5.33,0,0,0,3.18-.81,2.61,2.61,0,0,0,1.12-2.27,1.9,1.9,0,0,0-.54-1.4,3.73,3.73,0,0,0-1.42-.85,19.91,19.91,0,0,0-2.34-.65,21.37,21.37,0,0,1-3.24-.94,5.07,5.07,0,0,1-2.06-1.45,3.73,3.73,0,0,1-.79-2.48,4.37,4.37,0,0,1,.77-2.58,4.92,4.92,0,0,1,2.17-1.74A7.92,7.92,0,0,1,140.06,1a9.72,9.72,0,0,1,3.32.56A6.91,6.91,0,0,1,146,3.15l-.77,1.52a8.4,8.4,0,0,0-2.44-1.52,7.37,7.37,0,0,0-2.7-.48,5.09,5.09,0,0,0-3.12.86,2.75,2.75,0,0,0-1.12,2.34,2.16,2.16,0,0,0,1,1.94,9.81,9.81,0,0,0,3,1.13,34.28,34.28,0,0,1,3.47,1,5.2,5.2,0,0,1,2.1,1.34,3.37,3.37,0,0,1,.84,2.39,4.21,4.21,0,0,1-.77,2.53,4.92,4.92,0,0,1-2.19,1.7,8.6,8.6,0,0,1-3.35.6A9.11,9.11,0,0,1,133.54,16.31Z"/><path class="cls-1" d="M155.62,2.87h-6V1.19h13.9V2.87h-5.95v15.4h-2Z"/><path class="cls-1" d="M177.55,13.88h-8.93l-1.89,4.39h-2L172.2,1.19h1.73l7.51,17.08h-2Zm-.69-1.63-3.77-8.78-3.77,8.78Z"/><path class="cls-1" d="M188.52,2.87h-6V1.19h13.89V2.87h-6v15.4h-2Z"/><path class="cls-1" d="M201.26,1.19h2V18.27h-2Z"/><path class="cls-1" d="M212.88,17.41a6.91,6.91,0,0,1-2.7-3,10.65,10.65,0,0,1-1-4.64,10.71,10.71,0,0,1,.94-4.66,6.83,6.83,0,0,1,2.69-3,8.65,8.65,0,0,1,8.3,0,6.89,6.89,0,0,1,2.69,3,10.79,10.79,0,0,1,.93,4.64,10.63,10.63,0,0,1-.94,4.65,7.15,7.15,0,0,1-2.7,3,8.54,8.54,0,0,1-8.26,0Zm8.35-2.47a8,8,0,0,0,1.51-5.23,8,8,0,0,0-1.5-5.21,5.82,5.82,0,0,0-8.48,0,8,8,0,0,0-1.51,5.2,8,8,0,0,0,1.51,5.23,5.77,5.77,0,0,0,8.47,0Z"/><path class="cls-1" d="M244.49,1.19V18.27H243L232.63,4.52V18.27h-1.85V1.19h1.52l10.32,13.75V1.19Z"/><path class="cls-2" d="M7.1,0a11,11,0,0,0,0,20.56L11,10.24Zm7.81,0L11,10.24l3.91,10.32A11,11,0,0,0,14.91,0"/></g></g></svg>